<svg width="20" height="21" viewBox="0 0 20 21" fill="none" xmlns="http://www.w3.org/2000/svg">
<g clip-path="url(#clip0_87_1367)">
<path d="M9.99988 8.23474V12.1075H15.3817C15.1454 13.3529 14.4362 14.4075 13.3726 15.1166L16.618 17.6348C18.5089 15.8894 19.5998 13.3257 19.5998 10.2803C19.5998 9.57122 19.5362 8.88933 19.418 8.23485L9.99988 8.23474Z" fill="#4285F4"/>
<path d="M4.39555 11.9563L3.66358 12.5166L1.07263 14.5348C2.71808 17.7984 6.09056 20.0529 9.99962 20.0529C12.6996 20.0529 14.9632 19.162 16.6177 17.6348L13.3723 15.1166C12.4814 15.7166 11.345 16.0803 9.99962 16.0803C7.39963 16.0803 5.19061 14.3257 4.39964 11.9621L4.39555 11.9563Z" fill="#34A853"/>
<path d="M1.07265 5.57117C0.390868 6.91657 0 8.43477 0 10.0529C0 11.6711 0.390868 13.1893 1.07265 14.5347C1.07265 14.5437 4.39998 11.9529 4.39998 11.9529C4.19998 11.3529 4.08177 10.7165 4.08177 10.0528C4.08177 9.3891 4.19998 8.75277 4.39998 8.15278L1.07265 5.57117Z" fill="#FBBC05"/>
<path d="M9.99982 4.03479C11.4726 4.03479 12.7816 4.54387 13.8271 5.5257L16.6907 2.6621C14.9543 1.04395 12.6999 0.0529785 9.99982 0.0529785C6.09076 0.0529785 2.71808 2.29843 1.07263 5.57117L4.39986 8.15299C5.19072 5.78933 7.39984 4.03479 9.99982 4.03479Z" fill="#EA4335"/>
</g>
<defs>
<clipPath id="clip0_87_1367">
<rect width="20" height="20" fill="white" transform="translate(0 0.0529785)"/>
</clipPath>
</defs>
</svg>
