<svg width="153" height="157" viewBox="0 0 153 157" fill="none" xmlns="http://www.w3.org/2000/svg">
<g filter="url(#filter0_d_1_1333)">
<path d="M22 78.3457C22 47.4178 47.0721 22.3457 78 22.3457C108.928 22.3457 134 47.4178 134 78.3457C134 109.274 108.928 134.346 78 134.346C47.0721 134.346 22 109.274 22 78.3457Z" fill="#DCDCDC"/>
</g>
<mask id="mask0_1_1333" style="mask-type:alpha" maskUnits="userSpaceOnUse" x="22" y="22" width="112" height="113">
<path d="M78 134.346C108.928 134.346 134 109.274 134 78.3457C134 47.4178 108.928 22.3457 78 22.3457C47.0721 22.3457 22 47.4178 22 78.3457C22 109.274 47.0721 134.346 78 134.346Z" fill="#DCDCDC"/>
</mask>
<g mask="url(#mask0_1_1333)">
<path d="M84.7924 83.9305C89.9609 83.9305 94.1508 79.7406 94.1508 74.5721C94.1508 69.4035 89.9609 65.2136 84.7924 65.2136C79.6238 65.2136 75.4339 69.4035 75.4339 74.5721C75.4339 79.7406 79.6238 83.9305 84.7924 83.9305Z" fill="#CCCBCB"/>
<path d="M111.358 94.1947C115.693 94.1947 119.207 90.6806 119.207 86.3457C119.207 82.0108 115.693 78.4966 111.358 78.4966C107.023 78.4966 103.509 82.0108 103.509 86.3457C103.509 90.6806 107.023 94.1947 111.358 94.1947Z" fill="#C4C4C4"/>
<path d="M112.717 67.3268C116.302 67.3268 119.207 64.4209 119.207 60.8362C119.207 57.2516 116.302 54.3457 112.717 54.3457C109.132 54.3457 106.226 57.2516 106.226 60.8362C106.226 64.4209 109.132 67.3268 112.717 67.3268Z" fill="#C4C4C4"/>
<path d="M100.038 111.402C103.622 111.402 106.528 108.496 106.528 104.912C106.528 101.327 103.622 98.4211 100.038 98.4211C96.453 98.4211 93.5471 101.327 93.5471 104.912C93.5471 108.496 96.453 111.402 100.038 111.402Z" fill="#C4C4C4"/>
<path d="M66.5282 81.8173C67.7786 81.8173 68.7923 80.8036 68.7923 79.5532C68.7923 78.3027 67.7786 77.289 66.5282 77.289C65.2777 77.289 64.264 78.3027 64.264 79.5532C64.264 80.8036 65.2777 81.8173 66.5282 81.8173Z" fill="#C4C4C4"/>
<path d="M69.849 83.9305C70.5992 83.9305 71.2075 83.3223 71.2075 82.5721C71.2075 81.8218 70.5992 81.2136 69.849 81.2136C69.0987 81.2136 68.4905 81.8218 68.4905 82.5721C68.4905 83.3223 69.0987 83.9305 69.849 83.9305Z" fill="#C4C4C4"/>
<path d="M57.0188 67.9306C64.0213 67.9306 69.698 62.2539 69.698 55.2514C69.698 48.2488 64.0213 42.5721 57.0188 42.5721C50.0162 42.5721 44.3395 48.2488 44.3395 55.2514C44.3395 62.2539 50.0162 67.9306 57.0188 67.9306Z" fill="#C4C4C4"/>
<path d="M40.2641 97.5155C48.3503 97.5155 54.9056 90.9602 54.9056 82.874C54.9056 74.7877 48.3503 68.2325 40.2641 68.2325C32.1778 68.2325 25.6226 74.7877 25.6226 82.874C25.6226 90.9602 32.1778 97.5155 40.2641 97.5155Z" fill="#C4C4C4"/>
<path d="M66.2263 92.6853C68.4771 92.6853 70.3017 90.8607 70.3017 88.6098C70.3017 86.359 68.4771 84.5344 66.2263 84.5344C63.9755 84.5344 62.1508 86.359 62.1508 88.6098C62.1508 90.8607 63.9755 92.6853 66.2263 92.6853Z" fill="#C4C4C4"/>
<path d="M63.6603 115.629C67.495 115.629 70.6037 112.52 70.6037 108.685C70.6037 104.851 67.495 101.742 63.6603 101.742C59.8256 101.742 56.7169 104.851 56.7169 108.685C56.7169 112.52 59.8256 115.629 63.6603 115.629Z" fill="#C4C4C4"/>
<path d="M49.1697 105.365C50.6703 105.365 51.8867 104.148 51.8867 102.648C51.8867 101.147 50.6703 99.9305 49.1697 99.9305C47.6692 99.9305 46.4527 101.147 46.4527 102.648C46.4527 104.148 47.6692 105.365 49.1697 105.365Z" fill="#C4C4C4"/>
<path d="M47.9622 117.138C50.2964 117.138 52.1886 115.246 52.1886 112.912C52.1886 110.578 50.2964 108.685 47.9622 108.685C45.628 108.685 43.7358 110.578 43.7358 112.912C43.7358 115.246 45.628 117.138 47.9622 117.138Z" fill="#C4C4C4"/>
<path d="M87.3583 40.157C89.7759 40.157 91.7357 38.1972 91.7357 35.7796C91.7357 33.3621 89.7759 31.4023 87.3583 31.4023C84.9408 31.4023 82.981 33.3621 82.981 35.7796C82.981 38.1972 84.9408 40.157 87.3583 40.157Z" fill="#C4C4C4"/>
<path d="M88.8678 52.8362C89.9515 52.8362 90.8301 51.9577 90.8301 50.874C90.8301 49.7902 89.9515 48.9117 88.8678 48.9117C87.7841 48.9117 86.9055 49.7902 86.9055 50.874C86.9055 51.9577 87.7841 52.8362 88.8678 52.8362Z" fill="#C4C4C4"/>
<path d="M86.4527 97.8174C87.3697 97.8174 88.1131 97.074 88.1131 96.157C88.1131 95.24 87.3697 94.4966 86.4527 94.4966C85.5357 94.4966 84.7923 95.24 84.7923 96.157C84.7923 97.074 85.5357 97.8174 86.4527 97.8174Z" fill="#C4C4C4"/>
<path d="M89.9244 145.817C97.7606 145.817 104.113 139.465 104.113 131.629C104.113 123.792 97.7606 117.44 89.9244 117.44C82.0882 117.44 75.7357 123.792 75.7357 131.629C75.7357 139.465 82.0882 145.817 89.9244 145.817Z" fill="#C4C4C4"/>
</g>
<defs>
<filter id="filter0_d_1_1333" x="0.327625" y="0.673298" width="155.345" height="155.345" filterUnits="userSpaceOnUse" color-interpolation-filters="sRGB">
<feFlood flood-opacity="0" result="BackgroundImageFix"/>
<feColorMatrix in="SourceAlpha" type="matrix" values="0 0 0 0 0 0 0 0 0 0 0 0 0 0 0 0 0 0 127 0" result="hardAlpha"/>
<feOffset/>
<feGaussianBlur stdDeviation="10.8362"/>
<feComposite in2="hardAlpha" operator="out"/>
<feColorMatrix type="matrix" values="0 0 0 0 1 0 0 0 0 1 0 0 0 0 1 0 0 0 0.5 0"/>
<feBlend mode="normal" in2="BackgroundImageFix" result="effect1_dropShadow_1_1333"/>
<feBlend mode="normal" in="SourceGraphic" in2="effect1_dropShadow_1_1333" result="shape"/>
</filter>
</defs>
</svg>
