<svg width="133" height="80" viewBox="0 0 133 80" fill="none" xmlns="http://www.w3.org/2000/svg">
<g filter="url(#filter1_i_1_1102)">
<path d="M117.516 40.6762C117.856 38.7494 118.033 36.7674 118.033 34.7444C118.033 15.8193 102.548 0.477524 83.4463 0.477524C69.2459 0.477524 57.0444 8.95642 51.7178 21.0831C47.4027 17.3919 41.8033 15.1633 35.6842 15.1633C22.0403 15.1633 10.9797 26.2435 10.9797 39.9116C10.9797 40.6727 11.014 41.4258 11.0812 42.1694C4.51867 45.3541 -5.34058e-05 52.0365 -5.34058e-05 59.7646C-5.34058e-05 70.5789 8.84842 79.3457 19.7635 79.3457H113.092C124.007 79.3457 132.855 70.5789 132.855 59.7646C132.855 50.4574 126.301 42.6668 117.516 40.6762Z" fill="url(#paint0_linear_1_1102)"/>
</g>
<defs>
<filter id="filter1_i_1_1102" x="-5.34058e-05" y="0.477524" width="132.855" height="83.5627" filterUnits="userSpaceOnUse" color-interpolation-filters="sRGB">
<feFlood flood-opacity="0" result="BackgroundImageFix"/>
<feBlend mode="normal" in="SourceGraphic" in2="BackgroundImageFix" result="shape"/>
<feColorMatrix in="SourceAlpha" type="matrix" values="0 0 0 0 0 0 0 0 0 0 0 0 0 0 0 0 0 0 127 0" result="hardAlpha"/>
<feOffset dy="5.16399"/>
<feGaussianBlur stdDeviation="2.34727"/>
<feComposite in2="hardAlpha" operator="arithmetic" k2="-1" k3="1"/>
<feColorMatrix type="matrix" values="0 0 0 0 1 0 0 0 0 1 0 0 0 0 1 0 0 0 1 0"/>
<feBlend mode="normal" in2="shape" result="effect1_innerShadow_1_1102"/>
</filter>
<linearGradient id="paint0_linear_1_1102" x1="8.45011" y1="72.3039" x2="142.479" y2="-27.9244" gradientUnits="userSpaceOnUse">
<stop stop-color="white"/>
<stop offset="1" stop-color="white" stop-opacity="0.58"/>
</linearGradient>
</defs>
</svg>
