<svg width="32" height="33" viewBox="0 0 32 33" fill="none" xmlns="http://www.w3.org/2000/svg">
<mask id="mask0_1_709" style="mask-type:alpha" maskUnits="userSpaceOnUse" x="0" y="0" width="32" height="33">
<rect y="0.500832" width="32" height="32" fill="#D9D9D9"/>
</mask>
<g mask="url(#mask0_1_709)">
<path d="M15.9333 24.5008C16.4 24.5008 16.7944 24.3397 17.1167 24.0175C17.4389 23.6953 17.6 23.3008 17.6 22.8342C17.6 22.3675 17.4389 21.9731 17.1167 21.6508C16.7944 21.3286 16.4 21.1675 15.9333 21.1675C15.4667 21.1675 15.0722 21.3286 14.75 21.6508C14.4278 21.9731 14.2667 22.3675 14.2667 22.8342C14.2667 23.3008 14.4278 23.6953 14.75 24.0175C15.0722 24.3397 15.4667 24.5008 15.9333 24.5008ZM14.7333 19.3675H17.2C17.2 18.6342 17.2833 18.0564 17.45 17.6342C17.6167 17.2119 18.0889 16.6342 18.8667 15.9008C19.4444 15.3231 19.9 14.7731 20.2333 14.2508C20.5667 13.7286 20.7333 13.1008 20.7333 12.3675C20.7333 11.1231 20.2778 10.1675 19.3667 9.50083C18.4556 8.83416 17.3778 8.50083 16.1333 8.50083C14.8667 8.50083 13.8389 8.83416 13.05 9.50083C12.2611 10.1675 11.7111 10.9675 11.4 11.9008L13.6 12.7675C13.7111 12.3675 13.9611 11.9342 14.35 11.4675C14.7389 11.0008 15.3333 10.7675 16.1333 10.7675C16.8444 10.7675 17.3778 10.9619 17.7333 11.3508C18.0889 11.7397 18.2667 12.1675 18.2667 12.6342C18.2667 13.0786 18.1333 13.4953 17.8667 13.8842C17.6 14.2731 17.2667 14.6342 16.8667 14.9675C15.8889 15.8342 15.2889 16.4897 15.0667 16.9342C14.8444 17.3786 14.7333 18.1897 14.7333 19.3675ZM16 29.8342C14.1556 29.8342 12.4222 29.4842 10.8 28.7842C9.17778 28.0842 7.76667 27.1342 6.56667 25.9342C5.36667 24.7342 4.41667 23.3231 3.71667 21.7008C3.01667 20.0786 2.66667 18.3453 2.66667 16.5008C2.66667 14.6564 3.01667 12.9231 3.71667 11.3008C4.41667 9.67861 5.36667 8.2675 6.56667 7.0675C7.76667 5.8675 9.17778 4.9175 10.8 4.2175C12.4222 3.5175 14.1556 3.1675 16 3.1675C17.8444 3.1675 19.5778 3.5175 21.2 4.2175C22.8222 4.9175 24.2333 5.8675 25.4333 7.0675C26.6333 8.2675 27.5833 9.67861 28.2833 11.3008C28.9833 12.9231 29.3333 14.6564 29.3333 16.5008C29.3333 18.3453 28.9833 20.0786 28.2833 21.7008C27.5833 23.3231 26.6333 24.7342 25.4333 25.9342C24.2333 27.1342 22.8222 28.0842 21.2 28.7842C19.5778 29.4842 17.8444 29.8342 16 29.8342ZM16 27.1675C18.9778 27.1675 21.5 26.1342 23.5667 24.0675C25.6333 22.0008 26.6667 19.4786 26.6667 16.5008C26.6667 13.5231 25.6333 11.0008 23.5667 8.93416C21.5 6.8675 18.9778 5.83416 16 5.83416C13.0222 5.83416 10.5 6.8675 8.43334 8.93416C6.36667 11.0008 5.33334 13.5231 5.33334 16.5008C5.33334 19.4786 6.36667 22.0008 8.43334 24.0675C10.5 26.1342 13.0222 27.1675 16 27.1675Z" fill="#03457F"/>
</g>
</svg>
