<svg width="124" height="45" viewBox="0 0 124 45" fill="none" xmlns="http://www.w3.org/2000/svg">
<path d="M44.7797 22.5004L37.3715 29.9086L29.9643 22.5004L37.3715 15.0931L44.7797 22.5004ZM37.5112 18.2006C36.8984 18.2006 36.401 18.6972 36.4008 19.3099C36.4008 19.9229 36.8983 20.4203 37.5112 20.4203C38.124 20.4201 38.6206 19.9228 38.6206 19.3099C38.6203 18.6973 38.1238 18.2007 37.5112 18.2006Z" fill="#03457F"/>
<rect x="22.4177" y="14.9543" width="10.4761" height="10.4761" transform="rotate(-45 22.4177 14.9543)" fill="#005B94"/>
<rect x="22.4177" y="30.0474" width="10.4761" height="10.4761" transform="rotate(-45 22.4177 30.0474)" fill="#005B94"/>
<rect x="14.8712" y="22.5008" width="10.4761" height="10.4761" transform="rotate(-45 14.8712 22.5008)" fill="#009BDD"/>
<path d="M22.2789 14.8154L29.6866 7.40771H14.8712L22.2789 14.8154Z" fill="#009BDD"/>
<path d="M22.2789 30.1863L29.6866 37.594H14.8712L22.2789 30.1863Z" fill="#009BDD"/>
<path d="M14.8154 22.5008L7.4077 29.9085V15.0931L14.8154 22.5008Z" fill="#009BDD"/>
<path d="M49.3094 29.5008V15.4968H57.5818V17.9375H51.7501V20.7783H56.6215V23.219H51.7501V29.5008H49.3094ZM58.4527 19.4979H60.8934V29.5008H58.4527V19.4979ZM59.6931 18.2076C59.3329 18.2076 59.0295 18.0909 58.7828 17.8575C58.5361 17.6174 58.4127 17.3173 58.4127 16.9572C58.4127 16.6038 58.5361 16.307 58.7828 16.0669C59.0295 15.8269 59.3296 15.7068 59.683 15.7068C60.0365 15.7068 60.3332 15.8269 60.5733 16.0669C60.82 16.307 60.9434 16.6038 60.9434 16.9572C60.9434 17.3173 60.8234 17.6174 60.5833 17.8575C60.3432 18.0909 60.0465 18.2076 59.6931 18.2076ZM66.0924 29.6809C65.5723 29.6475 65.0688 29.5442 64.582 29.3708C64.1018 29.1907 63.675 28.9473 63.3016 28.6406C62.9282 28.3338 62.6414 27.9671 62.4413 27.5403L64.5019 26.66C64.582 26.7934 64.712 26.9368 64.8921 27.0901C65.0721 27.2368 65.2855 27.3602 65.5322 27.4602C65.7857 27.5603 66.0624 27.6103 66.3625 27.6103C66.6159 27.6103 66.856 27.5769 67.0827 27.5103C67.3161 27.4369 67.5028 27.3269 67.6429 27.1802C67.7896 27.0334 67.8629 26.8434 67.8629 26.61C67.8629 26.3633 67.7762 26.1732 67.6028 26.0398C67.4361 25.8998 67.2227 25.7964 66.9627 25.7297C66.7093 25.6564 66.4625 25.5897 66.2224 25.5297C65.5889 25.403 64.9988 25.2063 64.4519 24.9395C63.9118 24.6728 63.475 24.3293 63.1416 23.9092C62.8148 23.4824 62.6514 22.9689 62.6514 22.3688C62.6514 21.7086 62.8248 21.1384 63.1716 20.6583C63.525 20.1781 63.9818 19.808 64.542 19.5479C65.1088 19.2879 65.719 19.1578 66.3725 19.1578C67.1661 19.1578 67.8929 19.3245 68.5531 19.658C69.22 19.9847 69.7468 20.4482 70.1336 21.0484L68.203 22.1887C68.1097 22.0287 67.9796 21.882 67.8129 21.7486C67.6462 21.6085 67.4561 21.4952 67.2427 21.4085C67.0293 21.3151 66.8059 21.2618 66.5725 21.2484C66.2725 21.2351 65.999 21.2618 65.7523 21.3285C65.5056 21.3951 65.3055 21.5085 65.1521 21.6686C65.0054 21.8286 64.9321 22.042 64.9321 22.3087C64.9321 22.5622 65.0321 22.7522 65.2322 22.8789C65.4322 22.9989 65.6723 23.0923 65.9524 23.159C66.2391 23.2257 66.5125 23.299 66.7726 23.3791C67.3594 23.5724 67.9096 23.8092 68.4231 24.0893C68.9432 24.3693 69.36 24.7128 69.6734 25.1196C69.9869 25.5263 70.1369 26.0132 70.1236 26.58C70.1236 27.2268 69.9302 27.7937 69.5434 28.2805C69.1566 28.7606 68.6565 29.1274 68.043 29.3808C67.4361 29.6342 66.7859 29.7342 66.0924 29.6809ZM80.9981 23.179V29.5008H78.5574V23.8192C78.5574 23.4257 78.4607 23.069 78.2673 22.7489C78.074 22.4221 77.8139 22.1654 77.4871 21.9787C77.167 21.7853 76.8103 21.6886 76.4168 21.6886C76.0234 21.6886 75.6633 21.7853 75.3365 21.9787C75.0164 22.1654 74.7597 22.4221 74.5663 22.7489C74.3795 23.069 74.2862 23.4257 74.2862 23.8192V29.5008H71.8455L71.8355 14.4965H74.2762L74.2862 20.3882C74.6263 20.0281 75.0331 19.7447 75.5065 19.5379C75.98 19.3245 76.4902 19.2179 77.037 19.2179C77.7639 19.2179 78.4274 19.3979 79.0276 19.758C79.6277 20.1114 80.1045 20.5882 80.458 21.1884C80.8181 21.7819 80.9981 22.4455 80.9981 23.179ZM89.4729 29.7609C88.526 29.7609 87.6357 29.5742 86.8022 29.2007C85.9686 28.8206 85.235 28.2971 84.6015 27.6303C83.9747 26.9634 83.4812 26.1932 83.1211 25.3196C82.7677 24.4394 82.5909 23.4991 82.5909 22.4988C82.5909 21.4918 82.7677 20.5516 83.1211 19.678C83.4812 18.7977 83.9747 18.0275 84.6015 17.3673C85.235 16.7005 85.9686 16.1803 86.8022 15.8069C87.6357 15.4268 88.526 15.2367 89.4729 15.2367C90.6066 15.2367 91.6502 15.5001 92.6038 16.0269C93.5575 16.5471 94.3477 17.2439 94.9745 18.1175L92.7939 19.2879C92.4004 18.8011 91.9103 18.411 91.3235 18.1175C90.7433 17.8241 90.1265 17.6774 89.4729 17.6774C88.8594 17.6774 88.2826 17.8041 87.7424 18.0575C87.2023 18.3043 86.7288 18.651 86.322 19.0978C85.9152 19.5379 85.5985 20.0514 85.3717 20.6383C85.145 21.2184 85.0316 21.8386 85.0316 22.4988C85.0316 23.1657 85.145 23.7892 85.3717 24.3693C85.6051 24.9495 85.9252 25.463 86.332 25.9098C86.7388 26.3499 87.2089 26.6967 87.7424 26.9501C88.2826 27.1968 88.8594 27.3202 89.4729 27.3202C90.1398 27.3202 90.76 27.1735 91.3335 26.8801C91.9136 26.58 92.4004 26.1865 92.7939 25.6997L94.9745 26.8801C94.3477 27.747 93.5575 28.4439 92.6038 28.9707C91.6502 29.4975 90.6066 29.7609 89.4729 29.7609ZM103.877 19.4979H106.318V29.5008H103.877L103.767 28.2605C103.494 28.7073 103.13 29.0707 102.677 29.3508C102.23 29.6242 101.7 29.7609 101.086 29.7609C100.346 29.7609 99.6524 29.6209 99.0055 29.3408C98.3587 29.0607 97.7885 28.6739 97.295 28.1804C96.8082 27.687 96.4248 27.1168 96.1447 26.47C95.8713 25.8231 95.7346 25.1296 95.7346 24.3893C95.7346 23.6758 95.8646 23.0056 96.1247 22.3788C96.3914 21.7519 96.7616 21.2018 97.235 20.7283C97.7085 20.2548 98.2553 19.8847 98.8755 19.618C99.4957 19.3512 100.163 19.2179 100.876 19.2179C101.536 19.2179 102.126 19.3646 102.647 19.658C103.173 19.9514 103.62 20.3248 103.987 20.7783L103.877 19.4979ZM101.026 27.4102C101.546 27.4102 102.006 27.2802 102.407 27.0201C102.807 26.76 103.12 26.4099 103.347 25.9698C103.574 25.523 103.687 25.0329 103.687 24.4994C103.687 23.9592 103.574 23.4691 103.347 23.029C103.12 22.5822 102.803 22.2287 102.397 21.9686C101.996 21.7086 101.54 21.5785 101.026 21.5785C100.513 21.5785 100.043 21.7119 99.6157 21.9787C99.1956 22.2387 98.8588 22.5888 98.6054 23.029C98.3587 23.4691 98.2353 23.9592 98.2353 24.4994C98.2353 25.0395 98.362 25.5297 98.6154 25.9698C98.8688 26.4099 99.2056 26.76 99.6257 27.0201C100.053 27.2802 100.519 27.4102 101.026 27.4102ZM111.262 29.6809C110.742 29.6475 110.238 29.5442 109.751 29.3708C109.271 29.1907 108.844 28.9473 108.471 28.6406C108.097 28.3338 107.811 27.9671 107.611 27.5403L109.671 26.66C109.751 26.7934 109.881 26.9368 110.061 27.0901C110.241 27.2368 110.455 27.3602 110.702 27.4602C110.955 27.5603 111.232 27.6103 111.532 27.6103C111.785 27.6103 112.025 27.5769 112.252 27.5103C112.485 27.4369 112.672 27.3269 112.812 27.1802C112.959 27.0334 113.032 26.8434 113.032 26.61C113.032 26.3633 112.946 26.1732 112.772 26.0398C112.605 25.8998 112.392 25.7964 112.132 25.7297C111.879 25.6564 111.632 25.5897 111.392 25.5297C110.758 25.403 110.168 25.2063 109.621 24.9395C109.081 24.6728 108.644 24.3293 108.311 23.9092C107.984 23.4824 107.821 22.9689 107.821 22.3688C107.821 21.7086 107.994 21.1384 108.341 20.6583C108.694 20.1781 109.151 19.808 109.711 19.5479C110.278 19.2879 110.888 19.1578 111.542 19.1578C112.335 19.1578 113.062 19.3245 113.722 19.658C114.389 19.9847 114.916 20.4482 115.303 21.0484L113.372 22.1887C113.279 22.0287 113.149 21.882 112.982 21.7486C112.816 21.6085 112.625 21.4952 112.412 21.4085C112.199 21.3151 111.975 21.2618 111.742 21.2484C111.442 21.2351 111.168 21.2618 110.922 21.3285C110.675 21.3951 110.475 21.5085 110.321 21.6686C110.175 21.8286 110.101 22.042 110.101 22.3087C110.101 22.5622 110.201 22.7522 110.402 22.8789C110.602 22.9989 110.842 23.0923 111.122 23.159C111.408 23.2257 111.682 23.299 111.942 23.3791C112.529 23.5724 113.079 23.8092 113.592 24.0893C114.113 24.3693 114.529 24.7128 114.843 25.1196C115.156 25.5263 115.306 26.0132 115.293 26.58C115.293 27.2268 115.1 27.7937 114.713 28.2805C114.326 28.7606 113.826 29.1274 113.212 29.3808C112.605 29.6342 111.955 29.7342 111.262 29.6809ZM122.366 21.9386H120.426V29.5008H117.985V21.9386H116.505V19.4979H117.985V16.357H120.426V19.4979H122.366V21.9386Z" fill="#03457F"/>
</svg>
