<svg width="82" height="82" viewBox="0 0 82 82" fill="none" xmlns="http://www.w3.org/2000/svg">
<path d="M81.3268 40.5262L67.984 53.869L54.6422 40.5262L67.984 27.1844L81.3268 40.5262ZM68.234 32.7811C67.1302 32.7813 66.236 33.6763 66.236 34.7801C66.236 35.8839 67.1303 36.7789 68.234 36.7791C69.3379 36.7791 70.233 35.884 70.233 34.7801C70.233 33.6762 69.3379 32.7811 68.234 32.7811Z" fill="#03457F"/>
<rect x="41.0499" y="26.9343" width="18.8686" height="18.8686" transform="rotate(-45 41.0499 26.9343)" fill="#005B94"/>
<rect x="41.0499" y="54.1187" width="18.8686" height="18.8686" transform="rotate(-45 41.0499 54.1187)" fill="#005B94"/>
<rect x="27.4579" y="40.5265" width="18.8686" height="18.8686" transform="rotate(-45 27.4579 40.5265)" fill="#009BDD"/>
<path d="M40.8 26.6842L54.1421 13.3421H27.4579L40.8 26.6842Z" fill="#009BDD"/>
<path d="M40.8 54.3688L54.1421 67.7108H27.4579L40.8 54.3688Z" fill="#009BDD"/>
<path d="M27.3573 40.5265L14.0153 53.8686V27.1844L27.3573 40.5265Z" fill="#009BDD"/>
</svg>
